<svg width="22" height="22" viewBox="0 0 22 22" fill="none" xmlns="http://www.w3.org/2000/svg">
<path d="M8.88085 11.0047L17.111 2.77415C17.3376 2.54806 17.4623 2.24579 17.4623 1.92348C17.4623 1.60099 17.3376 1.29889 17.111 1.07246L16.3898 0.351642C16.1636 0.124846 15.8611 0 15.5388 0C15.2165 0 14.9144 0.124846 14.688 0.351642L4.88865 10.1508C4.66132 10.3779 4.53683 10.6814 4.53772 11.0041C4.53683 11.3282 4.66114 11.6314 4.88865 11.8587L14.6788 21.6484C14.9053 21.8752 15.2074 22 15.5299 22C15.8522 22 16.1543 21.8752 16.3809 21.6484L17.1019 20.9275C17.571 20.4584 17.571 19.6946 17.1019 19.2257L8.88085 11.0047Z" fill="black"/>
</svg>
