<svg width="23" height="23" viewBox="0 0 23 23" fill="none" xmlns="http://www.w3.org/2000/svg">
<g clip-path="url(#clip0)">
<path d="M11.5 23C5.14871 23 -2.09808e-05 17.8513 -2.09808e-05 11.5C-2.09808e-05 5.14873 5.14871 0 11.5 0C17.8513 0 23 5.14873 23 11.5C23 17.8513 17.8513 23 11.5 23Z" fill="#E24C4B"/>
<path d="M-3.8147e-05 11.5C-3.8147e-05 17.825 5.17496 23 11.5 23C15.1656 23 18.4 21.3469 20.4844 18.6875C18.5437 20.2687 16.0281 21.2031 13.2969 21.2031C6.97186 21.2031 1.79686 16.0281 1.79686 9.70312C1.79686 6.9719 2.73124 4.45626 4.3125 2.51564C1.65308 4.59994 -3.8147e-05 7.83431 -3.8147e-05 11.5Z" fill="#D1403F"/>
<path d="M6.25314 16.7469C6.68438 17.1782 7.40317 17.1782 7.8344 16.7469L11.5 13.0813L15.1656 16.7469C15.5969 17.1782 16.3157 17.1782 16.7469 16.7469C17.1781 16.3157 17.1781 15.5969 16.7469 15.1657L13.0813 11.5001L16.7469 7.83445C17.1781 7.40321 17.1781 6.68442 16.7469 6.25319C16.3157 5.82196 15.5969 5.82196 15.1656 6.25319L11.5 9.9188L7.8344 6.25319C7.40317 5.82196 6.68438 5.82196 6.25314 6.25319C5.82191 6.68442 5.82191 7.40321 6.25314 7.83445L9.91876 11.5001L6.25314 15.1657C5.82191 15.5969 5.82191 16.3156 6.25314 16.7469Z" fill="white"/>
</g>
<defs>
<clipPath id="clip0">
<rect width="23" height="23" fill="white" transform="matrix(-1 0 0 1 23 0)"/>
</clipPath>
</defs>
</svg>
