<svg width="23" height="23" fill="none" xmlns="http://www.w3.org/2000/svg"><g clip-path="url(#clip0)"><path d="M11.5 23C5.149 23 0 17.851 0 11.5S5.149 0 11.5 0 23 5.149 23 11.5 17.851 23 11.5 23z" fill="#E24C4B"/><path d="M0 11.5C0 17.825 5.175 23 11.5 23c3.666 0 6.9-1.653 8.984-4.313-1.94 1.582-4.456 2.516-7.187 2.516-6.325 0-11.5-5.175-11.5-11.5 0-2.731.934-5.247 2.516-7.187C1.652 4.6 0 7.834 0 11.5z" fill="#D1403F"/><path d="M6.253 16.747c.431.431 1.15.431 1.581 0L11.5 13.08l3.666 3.666c.43.431 1.15.431 1.58 0a1.128 1.128 0 000-1.581L13.082 11.5l3.666-3.666a1.128 1.128 0 000-1.58 1.128 1.128 0 00-1.581 0L11.5 9.918 7.834 6.253a1.128 1.128 0 00-1.58 0 1.128 1.128 0 000 1.581L9.918 11.5l-3.666 3.666a1.128 1.128 0 000 1.58z" fill="#fff"/></g><defs><clipPath id="clip0"><path fill="#fff" transform="matrix(-1 0 0 1 23 0)" d="M0 0h23v23H0z"/></clipPath></defs></svg>